<svg width="15" height="15" viewBox="0 0 15 15" fill="none" xmlns="http://www.w3.org/2000/svg">
<g clip-path="url(#clip0_37_12)">
<path d="M11.25 12.1875C11.25 12.6848 11.0525 13.1617 10.7008 13.5133C10.3492 13.865 9.87228 14.0625 9.375 14.0625H2.8125C2.31522 14.0625 1.83831 13.865 1.48667 13.5133C1.13504 13.1617 0.9375 12.6848 0.9375 12.1875V5.625C0.9375 5.12772 1.13504 4.65081 1.48667 4.29917C1.83831 3.94754 2.31522 3.75 2.8125 3.75V4.6875C2.56386 4.6875 2.3254 4.78627 2.14959 4.96209C1.97377 5.1379 1.875 5.37636 1.875 5.625V12.1875C1.875 12.4361 1.97377 12.6746 2.14959 12.8504C2.3254 13.0262 2.56386 13.125 2.8125 13.125H9.375C9.62364 13.125 9.8621 13.0262 10.0379 12.8504C10.2137 12.6746 10.3125 12.4361 10.3125 12.1875H11.25Z" fill="white"/>
<path d="M5.625 1.875C5.37636 1.875 5.1379 1.97377 4.96209 2.14959C4.78627 2.3254 4.6875 2.56386 4.6875 2.8125V9.375C4.6875 9.62364 4.78627 9.8621 4.96209 10.0379C5.1379 10.2137 5.37636 10.3125 5.625 10.3125H12.1875C12.4361 10.3125 12.6746 10.2137 12.8504 10.0379C13.0262 9.8621 13.125 9.62364 13.125 9.375V2.8125C13.125 2.56386 13.0262 2.3254 12.8504 2.14959C12.6746 1.97377 12.4361 1.875 12.1875 1.875H5.625ZM5.625 0.9375H12.1875C12.6848 0.9375 13.1617 1.13504 13.5133 1.48667C13.865 1.83831 14.0625 2.31522 14.0625 2.8125V9.375C14.0625 9.87228 13.865 10.3492 13.5133 10.7008C13.1617 11.0525 12.6848 11.25 12.1875 11.25H5.625C5.12772 11.25 4.65081 11.0525 4.29917 10.7008C3.94754 10.3492 3.75 9.87228 3.75 9.375V2.8125C3.75 2.31522 3.94754 1.83831 4.29917 1.48667C4.65081 1.13504 5.12772 0.9375 5.625 0.9375Z" fill="white"/>
</g>
<defs>
<clipPath id="clip0_37_12">
<rect width="15" height="15" fill="white"/>
</clipPath>
</defs>
</svg>
