<svg width="92" height="86" viewBox="0 0 92 86" fill="none" xmlns="http://www.w3.org/2000/svg">
<g filter="url(#filter0_i_5_30)">
<path d="M24.1193 84.8459H26.5853L29.822 85H32.9046L36.1413 84.8459L40.4569 84.5376L46.1596 84.2294H48.7798H51.2459H52.9413H56.4862H61.1101L65.1174 83.9211L68.3541 83.4587L71.1284 83.1505L74.211 82.534L76.8312 81.9174L79.9138 80.6844L82.0716 79.1431L84.3835 76.6771L85.9248 74.211L87.0037 71.8991L87.9284 69.1248L88.6991 66.6587L89.3156 63.5761L89.4697 61.5725V59.5688L89.3156 57.411L89.1615 55.4073L88.6991 53.5578L88.0826 50.7835L87.6202 48.6257L87.3119 47.0844L87.0037 45.2349L86.233 42.6147L85.3083 39.9945L83.9211 35.5248L82.6881 32.4422L81.6092 30.1303L80.222 27.356L78.2184 24.1193L75.5982 20.7284L71.2826 15.9505L69.433 13.7927L66.5046 10.8642L64.1927 8.86055L61.8807 7.01101L59.7229 5.62385L57.7193 4.39083L54.4826 2.84954L50.6294 1.77064L48.1633 1.15413L44.7725 1H39.9945L37.9908 1.46239L35.2165 2.23303L30.7468 4.39083L26.8936 7.01101L23.1945 10.0936L20.2661 13.1761L18.4165 15.4881L16.2587 18.5706L13.9468 21.9615L10.7101 27.356L9.32294 29.9761L7.78165 33.5211L6.85688 35.9872L6.08624 38.145L5.16147 40.9193L4.39083 43.5395L3.62019 46.3138L2.84954 49.8587L2.54129 51.7083L2.0789 53.8661L1.77064 55.5615L1.46239 58.644V64.0385L1.77064 66.967L2.0789 68.6624L2.84954 71.1284L3.92844 73.7486L5.3156 75.9064L7.01101 77.9101L8.70642 79.6055L10.0936 80.6844L11.789 81.9174L14.1009 82.8422L17.0294 83.9211L19.8037 84.5376L24.1193 84.8459Z" fill="#B7D4FF"/>
</g>
<path d="M24.1193 84.8459H26.5853L29.822 85H32.9046L36.1413 84.8459L40.4569 84.5376L46.1596 84.2294H48.7798H51.2459H52.9413H56.4862H61.1101L65.1174 83.9211L68.3541 83.4587L71.1284 83.1505L74.211 82.534L76.8312 81.9174L79.9138 80.6844L82.0716 79.1431L84.3835 76.6771L85.9248 74.211L87.0037 71.8991L87.9284 69.1248L88.6991 66.6587L89.3156 63.5761L89.4697 61.5725V59.5688L89.3156 57.411L89.1615 55.4073L88.6991 53.5578L88.0826 50.7835L87.6202 48.6257L87.3119 47.0844L87.0037 45.2349L86.233 42.6147L85.3083 39.9945L83.9211 35.5248L82.6881 32.4422L81.6092 30.1303L80.222 27.356L78.2184 24.1193L75.5982 20.7284L71.2826 15.9505L69.433 13.7927L66.5046 10.8642L64.1927 8.86055L61.8807 7.01101L59.7229 5.62385L57.7193 4.39083L54.4826 2.84954L50.6294 1.77064L48.1633 1.15413L44.7725 1H39.9945L37.9908 1.46239L35.2165 2.23303L30.7468 4.39083L26.8936 7.01101L23.1945 10.0936L20.2661 13.1761L18.4165 15.4881L16.2587 18.5706L13.9468 21.9615L10.7101 27.356L9.32294 29.9761L7.78165 33.5211L6.85688 35.9872L6.08624 38.145L5.16147 40.9193L4.39083 43.5395L3.62019 46.3138L2.84954 49.8587L2.54129 51.7083L2.0789 53.8661L1.77064 55.5615L1.46239 58.644V64.0385L1.77064 66.967L2.0789 68.6624L2.84954 71.1284L3.92844 73.7486L5.3156 75.9064L7.01101 77.9101L8.70642 79.6055L10.0936 80.6844L11.789 81.9174L14.1009 82.8422L17.0294 83.9211L19.8037 84.5376L24.1193 84.8459Z" stroke="#141C24" stroke-width="2"/>
<g filter="url(#filter1_i_5_30)">
<path d="M31.3633 29.9761L27.356 30.5926L24.5817 31.2091L21.0367 32.4422L18.8789 34.1376L17.3376 36.6036L16.2587 39.9945L15.6422 42.4605L15.1798 44.4642L14.8716 46.1596V49.088V53.0954L15.0257 55.7156L15.1798 59.7229L15.9505 62.0348L17.0294 63.8844L18.5706 65.4257L20.1119 66.5046L22.578 67.5835L26.1229 68.2L29.822 68.6624L32.9046 69.1247L36.7578 69.2789L39.8404 69.433L43.8477 69.5871H48.0092L51.0917 69.433L53.8661 69.1247L56.178 68.9706L58.3358 68.5082L60.1853 68.2L62.6514 67.5835L64.8092 67.1211L67.8917 65.888L70.2037 64.8091L72.0532 63.5761L73.4404 62.3431L74.5193 60.3394L74.9817 58.1816V54.4825V47.7009V46.0055L74.8275 44.4642L74.5193 42.4605L74.3651 40.9192L74.0569 39.2238L73.5945 37.3743L72.8239 35.6789L71.745 34.1376L70.0495 32.9046L67.2752 32.288L65.2716 31.5174L63.7303 31.055L60.8018 30.5926L57.5651 29.822L53.5578 29.5137L50.9376 29.2055H48.3174L45.0807 28.8972L39.5321 29.2055L35.0624 29.5137L31.3633 29.9761Z" fill="#E1E9F6"/>
</g>
<path d="M31.3633 29.9761L27.356 30.5926L24.5817 31.2091L21.0367 32.4422L18.8789 34.1376L17.3376 36.6036L16.2587 39.9945L15.6422 42.4605L15.1798 44.4642L14.8716 46.1596V49.088V53.0954L15.0257 55.7156L15.1798 59.7229L15.9505 62.0348L17.0294 63.8844L18.5706 65.4257L20.1119 66.5046L22.578 67.5835L26.1229 68.2L29.822 68.6624L32.9046 69.1247L36.7578 69.2789L39.8404 69.433L43.8477 69.5871H48.0092L51.0917 69.433L53.8661 69.1247L56.178 68.9706L58.3358 68.5082L60.1853 68.2L62.6514 67.5835L64.8092 67.1211L67.8917 65.888L70.2037 64.8091L72.0532 63.5761L73.4404 62.3431L74.5193 60.3394L74.9817 58.1816V54.4825V47.7009V46.0055L74.8275 44.4642L74.5193 42.4605L74.3651 40.9192L74.0569 39.2238L73.5945 37.3743L72.8239 35.6789L71.745 34.1376L70.0495 32.9046L67.2752 32.288L65.2716 31.5174L63.7303 31.055L60.8018 30.5926L57.5651 29.822L53.5578 29.5137L50.9376 29.2055H48.3174L45.0807 28.8972L39.5321 29.2055L35.0624 29.5137L31.3633 29.9761Z" stroke="#141C24" stroke-width="2"/>
<path d="M27.2018 45.6973L27.5101 43.8477L27.9725 42.923L28.589 42.4606L29.2055 42.1523L29.822 41.9982L30.4385 41.8441H31.055L31.9798 41.9982L32.7505 42.3064L33.367 42.923L33.8294 43.6936L33.9835 44.6184V45.5431V45.8514" stroke="#141C24" stroke-width="2"/>
<path d="M58.0275 45.6973L58.3358 43.8477L58.7982 42.923L59.4147 42.4606L60.0312 42.1523L60.6477 41.9982L61.2642 41.8441H61.8807L62.8055 41.9982L63.5761 42.3064L64.1927 42.923L64.655 43.6936L64.8092 44.6184V45.5431V45.8514" stroke="#141C24" stroke-width="2"/>
<path d="M43.8477 52.0165V53.2496L44.3101 54.0202L45.2349 54.7909L45.8514 55.0991H46.622L47.5468 54.7909L48.1633 54.1743L48.4716 53.712L48.7798 53.2496V52.7872V52.0165" stroke="#141C24" stroke-width="2"/>
<path d="M5.77798 12.2514L6.85688 10.8642L7.16514 9.6312L7.01101 8.70643L6.85688 7.93578L5.77798 6.54863L4.69908 6.08624H3.46605L2.54128 6.54863L1.46239 7.31927L1 8.5523V9.93945L1.46239 11.1725L2.54128 12.2514L4.2367 12.7138L5.77798 12.2514Z" fill="#B7D4FF"/>
<path d="M15.9505 19.033L15.1798 17.8L12.8679 15.1798L11.789 14.1009L10.556 13.022L9.16881 11.789L7.78165 10.8642H6.85688M6.85688 10.8642L5.77798 12.2514L4.2367 12.7138L2.54128 12.2514L1.46239 11.1725L1 9.93945V8.5523L1.46239 7.31927L2.54128 6.54863L3.46605 6.08624H4.69908L5.77798 6.54863L6.85688 7.93578L7.01101 8.70643L7.16514 9.6312L6.85688 10.8642Z" stroke="#141C24" stroke-width="2"/>
<path d="M82.3798 7.9358L81.7633 7.78167L82.0716 6.24038L82.2257 4.6991L83.3046 3.31194L84.5376 2.07892L86.233 1.4624L88.2367 2.38717L89.778 4.23671L90.0862 6.39451L89.4697 7.9358L87.4661 9.47708L84.8459 9.63121L83.3046 9.16882L82.3798 7.9358Z" fill="#B7D4FF"/>
<path d="M71.5908 16.4129L72.978 14.7174L74.211 13.3303L75.7523 11.789L76.9853 10.556L78.8349 9.0147L80.0679 8.39818L81.7633 7.78167M81.7633 7.78167L82.3798 7.9358L83.3046 9.16882L84.8459 9.63121L87.4661 9.47708L89.4697 7.9358L90.0862 6.39451L89.778 4.23671L88.2367 2.38717L86.233 1.4624L84.5376 2.07892L83.3046 3.31194L82.2257 4.6991L82.0716 6.24038L81.7633 7.78167Z" stroke="#141C24" stroke-width="2"/>
<ellipse cx="30.2844" cy="51.0917" rx="5.85688" ry="1.84954" fill="#D78486"/>
<ellipse cx="62.3431" cy="51.0917" rx="5.85688" ry="1.84954" fill="#D78486"/>
<path d="M61.1101 49.8587C60.9661 49.9497 60.82 50.1063 60.7466 50.2639C60.7054 50.3524 60.6636 50.4691 60.5893 50.5408C60.5222 50.6057 60.4371 50.6559 60.3936 50.7401C60.3479 50.8284 60.2657 51.0596 60.1839 51.1048C60.1387 51.1297 60.0709 51.2798 60.0406 51.331C59.9906 51.4157 59.9265 51.4948 59.8589 51.5674C59.771 51.6618 59.5688 51.9008 59.5688 52.0165" stroke="#141C24" stroke-linecap="round"/>
<path d="M62.3431 49.8587C62.1682 49.8963 62.0492 50.241 61.9657 50.3695C61.8894 50.4867 61.8517 50.6294 61.7927 50.7551C61.7485 50.8492 61.7478 50.9273 61.6826 51.0156C61.6207 51.0994 61.5478 51.1787 61.4868 51.2524C61.4676 51.2757 61.4084 51.3126 61.4012 51.337C61.3811 51.4051 61.3702 51.5124 61.3051 51.5569C61.2584 51.5888 61.1726 51.738 61.1478 51.792C61.099 51.8983 61.0329 51.9952 60.9748 52.0964C60.9425 52.1527 60.8509 52.301 60.8018 52.3248" stroke="#141C24" stroke-linecap="round"/>
<path d="M63.2679 49.8587C63.2518 49.9831 63.0821 50.1527 63.0174 50.2747C62.954 50.3942 62.8759 50.5537 62.8398 50.6791C62.7608 50.9531 62.6843 51.156 62.5165 51.3888C62.4496 51.4818 62.3096 51.696 62.3046 51.7966C62.2988 51.9135 62.3126 51.9934 62.2275 52.0937C62.164 52.1686 62.0711 52.241 62.0349 52.3248" stroke="#141C24" stroke-linecap="round"/>
<path d="M32.7505 49.8587C32.5357 49.8587 32.2032 50.1477 32.0477 50.2881C31.9442 50.3814 31.7964 50.5362 31.7594 50.6697C31.6934 50.908 31.4541 51.0341 31.2932 51.2C31.1823 51.3144 31.1542 51.5308 31.0673 51.6679C30.9931 51.7849 30.8893 51.8871 30.8217 52.0055C30.6871 52.2415 30.3649 52.3841 30.2844 52.633" stroke="#141C24" stroke-linecap="round"/>
<path d="M31.2092 49.8587C31.0703 49.8716 30.978 50.0006 30.8804 50.0786C30.7234 50.2039 30.6031 50.3619 30.42 50.4608C30.2961 50.5278 30.2152 50.6405 30.0985 50.7112C29.9719 50.7879 29.846 50.9064 29.7624 51.0224C29.7112 51.0935 29.6422 51.1748 29.6053 51.2524C29.5836 51.2982 29.5067 51.2962 29.4994 51.3505C29.4913 51.4103 29.3652 51.5315 29.3277 51.5941C29.2853 51.6646 29.1929 51.7666 29.1304 51.8309C29.0716 51.8914 29.0107 51.9457 28.966 52.0203C28.9174 52.1012 28.8295 52.2848 28.7431 52.3248" stroke="#141C24" stroke-linecap="round"/>
<path d="M29.6679 49.8587C29.391 49.984 29.1364 50.1456 28.8747 50.3066C28.7594 50.3775 28.6213 50.4957 28.4989 50.548C28.2281 50.6637 28.0799 50.9059 27.8755 51.1024C27.7003 51.2709 27.4439 51.3528 27.2988 51.5437C27.179 51.7012 26.9814 51.8477 26.8936 52.0165" stroke="#141C24" stroke-linecap="round"/>
<defs>
<filter id="filter0_i_5_30" x="0.462387" y="0" width="92.0073" height="88" filterUnits="userSpaceOnUse" color-interpolation-filters="sRGB">
<feFlood flood-opacity="0" result="BackgroundImageFix"/>
<feBlend mode="normal" in="SourceGraphic" in2="BackgroundImageFix" result="shape"/>
<feColorMatrix in="SourceAlpha" type="matrix" values="0 0 0 0 0 0 0 0 0 0 0 0 0 0 0 0 0 0 127 0" result="hardAlpha"/>
<feOffset dx="5" dy="10"/>
<feGaussianBlur stdDeviation="1"/>
<feComposite in2="hardAlpha" operator="arithmetic" k2="-1" k3="1"/>
<feColorMatrix type="matrix" values="0 0 0 0 0 0 0 0 0 0 0 0 0 0 0 0 0 0 0.25 0"/>
<feBlend mode="normal" in2="shape" result="effect1_innerShadow_5_30"/>
</filter>
<filter id="filter1_i_5_30" x="13.8716" y="27.8946" width="64.1101" height="44.6925" filterUnits="userSpaceOnUse" color-interpolation-filters="sRGB">
<feFlood flood-opacity="0" result="BackgroundImageFix"/>
<feBlend mode="normal" in="SourceGraphic" in2="BackgroundImageFix" result="shape"/>
<feColorMatrix in="SourceAlpha" type="matrix" values="0 0 0 0 0 0 0 0 0 0 0 0 0 0 0 0 0 0 127 0" result="hardAlpha"/>
<feOffset dx="10" dy="2"/>
<feGaussianBlur stdDeviation="1"/>
<feComposite in2="hardAlpha" operator="arithmetic" k2="-1" k3="1"/>
<feColorMatrix type="matrix" values="0 0 0 0 0 0 0 0 0 0 0 0 0 0 0 0 0 0 0.25 0"/>
<feBlend mode="normal" in2="shape" result="effect1_innerShadow_5_30"/>
</filter>
</defs>
</svg>
